<?xml version="1.0" encoding="UTF-8"?>
<svg width="256" height="256" version="1.1"
     xmlns="http://www.w3.org/2000/svg"
     xmlns:xlink="http://www.w3.org/1999/xlink">
  <defs>
    <linearGradient id="Gradient" x1="0" x2="0" y1="0" y2="1">
      <stop offset="0%" style="stop-color:#C01C28;stop-opacity:1" />
      <stop offset="100%" style="stop-color:#C01C28;stop-opacity:1" />
    </linearGradient>
    <filter id="alpha-to-white">
      <feColorMatrix in="SourceGraphic" type="matrix"
                     values="0 0 0 1 0
                             0 0 0 1 0
                             0 0 0 1 0
                             0 0 0 1 0"/>
    </filter>
    <g id="child-svg"><svg xmlns="http://www.w3.org/2000/svg" width="16" height="16" version="1.1">
 <path style="fill:#dfdfdf" d="M 9,1 10.22,2.906 5.81,5.656 C 5.3,5.245 4.66,5 4,5 2.43,5 1,6.429 1,8 1,9.5707 2.43,11 4,11 4.66,11 5.3,10.723 5.81,10.313 L 10.22,13.094 9,15 H 15 L 12.5,9.5 11.28,11.438 6.91,8.656 C 6.96,8.442 7,8.224 7,8 7,7.776 6.96,7.558 6.91,7.344 L 11.28,4.562 12.5,6.5 15,1 Z"/>
</svg>
</g>
  </defs>
  <rect
      width="256"
      height="256"
      fill="url(#Gradient)"
      ry="0"
      x="0"
      y="0" />
  <use xlink:href="#child-svg" filter="url(#alpha-to-white)"
       transform="matrix(8,0,0,8,64,64)" />
</svg>
